<?xml version="1.0" encoding="utf-8"?>
<svg viewBox="-174.464 0 759.535 730.952" xmlns="http://www.w3.org/2000/svg" xmlns:bx="https://boxy-svg.com">
  <defs>
    <bx:grid x="8.668" y="303.731" width="49.161" height="47.469"/>
    <style bx:fonts="Open Sans">@import url(https://fonts.googleapis.com/css2?family=Open+Sans%3Aital%2Cwght%400%2C300%3B0%2C400%3B0%2C500%3B0%2C600%3B0%2C700%3B0%2C800%3B1%2C300%3B1%2C400%3B1%2C500%3B1%2C600%3B1%2C700%3B1%2C800&amp;display=swap);</style>
  </defs>
  <path d="M 101.415 199.765 L 401.921 300 L 401.921 345.893 L 101.921 248.683 L 101.415 199.765 Z" style="fill: rgb(216, 216, 216); stroke: rgb(0, 0, 0);"/>
  <line style="fill: rgb(216, 216, 216); stroke: rgb(0, 0, 0);" x1="101.921" y1="200" x2="222.065" y2="129.407"/>
  <line style="fill: rgb(216, 216, 216); stroke: rgb(0, 0, 0);" x1="401.921" y1="300" x2="522.065" y2="229.407"/>
  <line style="fill: rgb(216, 216, 216); stroke: rgb(0, 0, 0);" x1="401.921" y1="345.906" x2="522.065" y2="275.313"/>
  <polyline style="stroke: rgb(0, 0, 0); fill: none;" points="111.277 213.404 147.08 225.6 147.473 253.533"/>
  <polyline style="stroke: rgb(0, 0, 0); fill: none; paint-order: fill;" points="111.483 213.086 147.286 225.282 147.679 253.215" transform="matrix(-1, 0, 0, -1, 259.162003, 466.300995)"/>
  <path d="M 8.621 305.085 L 128.765 234.492" style="fill: none; stroke: rgb(9, 183, 241); paint-order: fill; stroke-width: 7px; stroke-linecap: round;"/>
  <polyline style="stroke: rgb(0, 0, 0); fill: none;" points="156.9 229.622 192.703 241.818 193.096 269.751"/>
  <polyline style="stroke: rgb(0, 0, 0); fill: none; paint-order: fill;" points="157.106 229.304 192.909 241.5 193.302 269.433" transform="matrix(-1, 0, 0, -1, 350.408005, 498.737015)"/>
  <line style="fill: none; stroke: rgb(9, 183, 241); paint-order: fill; stroke-width: 7px; stroke-linecap: round;" x1="57.829" y1="321.054" x2="177.973" y2="250.461"/>
  <path d="M -43.908 370.171 C -37.079 386.653 -30.249 403.135 -23.42 419.616 C -20.006 427.857 -16.591 436.098 -13.176 444.339 C -11.469 448.459 -9.762 452.58 -8.054 456.7 C -6.347 460.821 -2.933 469.062 -2.933 469.062 C -2.933 469.062 -10.323 472.124 -10.323 472.124 C -10.323 472.124 -13.738 463.883 -15.445 459.763 C -17.152 455.642 -18.86 451.522 -20.567 447.401 C -23.982 439.16 -27.396 430.92 -30.811 422.679 C -37.64 406.197 -44.469 389.715 -51.298 373.233 L -43.908 370.171 Z" style="fill: none;" transform="matrix(-1, 0, 0, -1, -54.230999, 842.294983)"/>
  <path d="M -35.906 369.698 C -21.833 374.52 -7.758 379.342 6.316 384.164 C 13.352 386.576 20.389 388.987 27.427 391.398 C 30.945 392.603 34.463 393.809 37.983 395.014 C 41.5 396.22 48.536 398.631 48.536 398.631 L 50.938 399.454 L 33.076 400.505 L 32.983 400.473 C 32.983 400.473 25.945 398.062 22.427 396.856 C 18.909 395.651 15.389 394.445 11.871 393.24 C 4.834 390.829 -2.202 388.418 -9.24 386.007 C -23.313 381.184 -37.387 376.362 -51.46 371.54 L -53.862 370.717 L -35.999 369.666 L -35.906 369.698 Z M -48.734 371.417 C -35.461 375.965 -22.989 380.238 -8.916 385.061 C -1.878 387.472 5.158 389.883 12.195 392.294 C 15.713 393.499 19.233 394.705 22.751 395.91 C 26.269 397.116 32.372 399.207 33.214 399.495 L 45.81 398.754 C 43.44 397.942 41.176 397.166 37.659 395.96 C 34.139 394.755 30.621 393.549 27.103 392.344 C 20.065 389.933 13.028 387.522 5.992 385.11 C -8.082 380.288 -22.095 375.487 -36.137 370.676 L -48.734 371.417 Z" style="fill: none;" transform="matrix(-1, 0, 0, -1, -2.923996, 770.17099)"/>
  <path d="M 57.829 475.147 L 194.829 519.541 L 57.829 475.147 Z" style="fill: rgb(216, 216, 216); stroke: rgb(9, 183, 241); stroke-width: 7px; stroke-miterlimit: 8;"/>
  <line style="fill: rgb(216, 216, 216); stroke: rgb(0, 0, 0); stroke-linejoin: bevel; stroke-linecap: square;" x1="158.072" y1="541.076" x2="249.072" y2="487.607"/>
  <line style="fill: rgb(216, 216, 216); stroke: rgb(0, 0, 0);" x1="287.039" y1="582.837" x2="378.039" y2="529.368"/>
  <path d="M 248.59 487.803 L 378.59 529.927 L 248.59 487.803 Z" style="fill: rgb(216, 216, 216); stroke: rgb(0, 0, 0);"/>
  <path d="M 158.072 541.076 L 288.072 583.2 L 158.072 541.076 Z" style="fill: rgb(216, 216, 216); stroke: rgb(0, 0, 0);"/>
  <line style="fill: rgb(216, 216, 216); stroke: rgb(0, 0, 0);" x1="378.157" y1="528.42" x2="378.157" y2="446.138"/>
  <path d="M 248.316 404.014 L 378.316 446.138 L 248.316 404.014 Z" style="fill: rgb(216, 216, 216); stroke: rgb(0, 0, 0);"/>
  <line style="fill: rgb(216, 216, 216); stroke: rgb(0, 0, 0);" x1="249.188" y1="487.652" x2="249.188" y2="405.37"/>
  <line style="fill: rgb(216, 216, 216); stroke: rgb(0, 0, 0);" x1="318.495" y1="641.359" x2="409.495" y2="587.89"/>
  <line style="fill: rgb(216, 216, 216); stroke: rgb(0, 0, 0);" x1="447.462" y1="683.12" x2="538.462" y2="629.651"/>
  <path d="M 409.013 588.086 L 539.013 630.21 L 409.013 588.086 Z" style="fill: rgb(216, 216, 216); stroke: rgb(0, 0, 0);"/>
  <path d="M 318.495 641.359 L 448.495 683.483 L 318.495 641.359 Z" style="fill: rgb(216, 216, 216); stroke: rgb(0, 0, 0);"/>
  <line style="fill: rgb(216, 216, 216); stroke: rgb(0, 0, 0);" x1="538.58" y1="628.703" x2="538.58" y2="546.421"/>
  <path d="M 408.739 504.297 L 538.739 546.421 L 408.739 504.297 Z" style="fill: rgb(216, 216, 216); stroke: rgb(0, 0, 0);"/>
  <line style="fill: rgb(216, 216, 216); stroke: rgb(0, 0, 0);" x1="409.611" y1="587.935" x2="409.611" y2="505.653"/>
  <path d="M -52.542 496.834 L 344.958 625.64 L -52.542 496.834 Z" style="fill: rgb(216, 216, 216); stroke: rgb(9, 183, 241); stroke-width: 7px; stroke-linecap: round;"/>
  <text style="fill: rgb(51, 51, 51); font-family: &quot;Open Sans&quot;; font-size: 31px; letter-spacing: -0.8px; white-space: pre;"><tspan x="-134.57" y="61.436">Router -&gt; modem -&gt; cable/fiber optic network</tspan><tspan x="-134.57" dy="1em">​</tspan><tspan>        </tspan><tspan style="text-transform: lowercase;">DIAGRAMS COMING SOON</tspan></text>
  <line style="fill: none; stroke: rgb(9, 183, 241); paint-order: fill; stroke-width: 7px; stroke-linecap: round;" x1="-52.504" y1="496.925" x2="8.711" y2="460.957"/>
  <line style="fill: rgb(216, 216, 216); stroke: rgb(9, 183, 241); stroke-width: 7px; stroke-linecap: round;" x1="8.59" y1="305.033" x2="8.668" y2="460.972"/>
  <line style="fill: rgb(216, 216, 216); stroke: rgb(9, 183, 241); stroke-width: 7px; stroke-linecap: round;" x1="57.829" y1="321.335" x2="57.791" y2="475.128"/>
  <path d="M 221.636 129.456 L 522.142 229.691 L 221.636 129.456 Z" style="fill: rgb(216, 216, 216); stroke: rgb(0, 0, 0);"/>
  <path d="M 521.715 275.467 L 521.715 229.574 L 521.715 275.467 Z" style="fill: rgb(216, 216, 216); stroke: rgb(0, 0, 0);"/>
  <path style="fill: none; stroke: rgb(9, 183, 241);" d="M 510.657 241.462 C 556.386 258.427 546.737 263.828 547.802 163.489"/>
  <path style="fill: none; stroke: rgb(9, 183, 241);" d="M 502.786 257.976 C 512.286 260.911 525.202 265.799 536.816 269.53 C 544.136 271.882 552.596 275.263 561.623 264.431 C 565.141 260.21 567.14 251.525 567.639 236.882 C 568.217 219.921 567.407 195.553 567.408 163.489"/>
  <ellipse style="fill: rgb(216, 216, 216); stroke: rgb(9, 183, 241);" cx="557.612" cy="164.037" rx="9.81" ry="2.713"/>
  <path d="M 484.466 297.12 L 484.466 251.227 L 484.466 297.12 Z" style="fill: rgb(216, 216, 216); stroke: rgb(0, 0, 0);"/>
  <path style="fill: rgb(216, 216, 216); stroke: rgb(9, 183, 241);" d="M 507.308 256.938 C 510.476 255.021 512.254 251.775 512.641 247.196 C 513.117 241.567 510.73 239.98 505.81 242.998 C 502.645 244.939 500.654 248.514 500.701 253.724 C 500.738 258.053 502.94 259.123 507.308 256.938 Z"/>
  <path style="fill: rgb(216, 216, 216); stroke: rgb(0, 0, 0);" d="M 520.812 335.568 C 530.659 329.614 536.185 319.523 537.389 305.295 C 538.869 287.803 531.448 282.868 516.16 292.247 C 506.325 298.281 500.139 309.393 500.28 325.582 C 500.397 339.034 507.241 342.363 520.812 335.568 Z"/>
  <path d="M 567.466 280.381 L 567.466 164.381 L 567.466 280.381 Z" style="fill: rgb(216, 216, 216); stroke: rgb(0, 0, 0);"/>
  <path d="M 502.247 257.753 L 571.247 280.768 L 502.247 257.753 Z" style="fill: rgb(216, 216, 216); stroke: rgb(0, 0, 0);"/>
  <ellipse style="fill: rgb(216, 216, 216); stroke: rgb(9, 183, 241);" cx="556.887" cy="249.62" rx="9.81" ry="2.713"/>
  <path style="fill: rgb(216, 216, 216); stroke: rgb(9, 183, 241);" d="M 535.05 266.067 C 538.218 264.15 539.996 260.904 540.383 256.325 C 540.859 250.696 538.472 249.109 533.552 252.127 C 530.387 254.068 528.396 257.643 528.443 262.853 C 528.48 267.182 530.682 268.252 535.05 266.067 Z"/>
  <path style="fill: rgb(216, 216, 216); stroke: rgb(9, 183, 241);" d="M 554.228 266.253 C 556.737 264.026 558.145 260.255 558.452 254.935 C 558.829 248.396 556.939 246.552 553.042 250.058 C 550.535 252.314 548.957 256.467 548.995 262.519 C 549.024 267.548 550.768 268.791 554.228 266.253 Z" transform="matrix(0.309017, -0.951057, 0.951057, 0.309017, 137.332432, 704.863413)"/>
  <ellipse style="fill: rgb(216, 216, 216); stroke: rgb(9, 183, 241);" cx="557.157" cy="236.535" rx="9.81" ry="2.713"/>
  <path style="fill: rgb(216, 216, 216); stroke: rgb(9, 183, 241);" d="M 540.958 268.122 C 544.126 266.205 545.904 262.959 546.291 258.38 C 546.767 252.751 544.38 251.164 539.46 254.182 C 536.295 256.123 534.304 259.698 534.351 264.908 C 534.388 269.237 536.59 270.307 540.958 268.122 Z"/>
</svg>